<?xml version="1.0" encoding="UTF-8"?>
<svg id="a" data-name="YTMO" xmlns="http://www.w3.org/2000/svg" viewBox="0 0 512 512">
  <defs>
    <style>
      .b {
        fill: #3c484d;
      }

      .c {
        fill: #ebdd8d;
      }

      .d {
        fill: #daeb8d;
      }

      .e {
        fill: #14181a;
      }

      .f {
        fill: #3e4d3d;
      }

      .g {
        fill: #aceb8d;
      }
    </style>
  </defs>
  <g>
    <path class="e" d="M297.22,438.58c-.88,0-1.75-.13-2.58-.38l-168.58-51.24c-3.03-.92-5.36-3.41-6.07-6.49l-39.92-171.62c-.72-3.08.27-6.34,2.59-8.51l128.67-120.38c1.65-1.55,3.81-2.4,6.08-2.4.87,0,1.74.13,2.58.38l168.59,51.24c3.03.92,5.36,3.41,6.08,6.49l39.92,171.62c.72,3.08-.27,6.34-2.59,8.51l-128.67,120.38c-1.65,1.55-3.81,2.4-6.08,2.4h0Z"/>
    <path class="b" d="M218.33,90.51l164.6,50.03,38.97,167.56-125.63,117.53-164.6-50.03-38.97-167.56,125.63-117.53M217.39,65.06c-5.35,0-10.6,2.01-14.62,5.77l-128.67,120.38c-5.58,5.22-7.95,13.02-6.22,20.47l39.92,171.62c1.73,7.44,7.3,13.4,14.61,15.62l168.59,51.24c2.05.62,4.14.93,6.22.93,5.35,0,10.6-2.01,14.62-5.77l128.67-120.38c5.58-5.22,7.95-13.02,6.22-20.47l-39.92-171.62c-1.73-7.44-7.3-13.4-14.61-15.62l-168.59-51.24c-2.05-.62-4.14-.93-6.22-.93h0Z"/>
  </g>
  <g>
    <path class="g" d="M380.77,253.54c-4.81,0-9.42-1.25-13.71-3.73l-131.63-76c-8.61-4.97-13.75-13.87-13.75-23.82s5.14-18.84,13.75-23.82l61.27-35.37,94.77,28.81c6.44,1.96,11.38,7.24,12.91,13.79l3.94,16.95v75.64c0,7.58-2.97,14.61-8.38,19.79-5.14,4.93-12.13,7.76-19.17,7.76h0Z"/>
    <path class="b" d="M297.01,93.52l93.73,28.49c5.58,1.7,9.88,6.28,11.2,11.97l3.88,16.67v75.35c0,15.47-13,25.04-25.05,25.04-4.36,0-8.55-1.14-12.45-3.39l-131.63-76c-7.83-4.52-12.5-12.61-12.5-21.65s4.67-17.13,12.5-21.65l60.33-34.83M296.39,88.1l-62.21,35.91c-20,11.55-20,40.41,0,51.96l131.63,76c4.83,2.79,9.96,4.06,14.95,4.06,15.67,0,30.05-12.53,30.05-30.04v-75.92l-4.01-17.23c-1.73-7.44-7.3-13.4-14.61-15.62l-95.81-29.12h0Z"/>
  </g>
  <g>
    <path class="d" d="M335.79,350.85c-3.06,0-5.99-.8-8.72-2.37l-161.63-93.32c-5.48-3.16-8.75-8.83-8.75-15.16s3.27-11.99,8.75-15.16l161.63-93.32c2.73-1.58,5.66-2.37,8.72-2.37,8.43,0,17.53,6.7,17.53,17.53v186.64c0,4.83-1.89,9.3-5.33,12.59-3.28,3.14-7.72,4.94-12.2,4.94h0Z"/>
    <path class="f" d="M335.79,131.65c7.23,0,15.03,5.75,15.03,15.03v186.64c0,9.28-7.8,15.03-15.03,15.03-2.61,0-5.13-.69-7.47-2.04l-161.63-93.32c-4.7-2.71-7.5-7.57-7.5-12.99s2.8-10.28,7.5-12.99l161.63-93.32c2.34-1.35,4.86-2.04,7.47-2.04M335.79,126.65c-3.33,0-6.75.85-9.97,2.71l-161.63,93.32c-13.33,7.7-13.33,26.94,0,34.64l161.63,93.32c3.22,1.86,6.64,2.71,9.97,2.71,10.45,0,20.03-8.35,20.03-20.03v-186.64c0-11.67-9.58-20.03-20.03-20.03h0Z"/>
  </g>
  <g>
    <path class="c" d="M191.83,417.4l-84.94-49.04-9.58-41.2,178.72-103.19c.47-.27.98-.41,1.5-.41,1.45,0,3.02,1.16,3.02,3.02v217.78l-88.73-26.97Z"/>
    <path class="b" d="M277.53,226.07s.52.04.52.52v214.41l-85.23-25.91-83.75-48.35-8.92-38.33,177.12-102.26c.12-.07.2-.08.25-.08M277.53,221.07c-.92,0-1.86.23-2.75.75l-180.33,104.11,10.25,44.06,86.12,49.72,92.23,28.03v-221.15c0-3.22-2.64-5.52-5.52-5.52h0Z"/>
  </g>
</svg>